Patient4_TMGait_0pt4_03_right_06_EMG.mot
version=1
nRows=26
nColumns=33
inDegrees=no
endheader
time	1LAddLong	2LGlutMax	3LGlutMed	4LIliopsoas	5LSemiMemb	6LBicFemLong	7LRecFem	8LVastMed	9LVastLat	10LGasMed	11LTibAnt	12lTibPost	13LPeroneusLong	14LSol	15LExtDigLong	16LFlexDigLong	17RAddLong	18RGlutMax	19RGlutMed	20RIliopsoas	21RSemiMemb	22RBicFemLong	23RRecFem	24RVastMed	25RVastLat	26RGasMed	27RTibAnt	28RTibPost	29RPeroneusLong	30RSol	31RExtDigLong	32RFlexDigLong
8.17	0.001526	-0.067291	0.002136	0.027161	0.018616	0.000305	0.023804	0.006256	0.008087	0.020752	0.10498	-0.020752	0.028687	-0.013428	0.98877	-0.018463	-0.016022	-0.14847	0.38406	-0.069427	-0.028381	0.095673	-0.073547	-0.016937	0.007477	-0.046387	-0.024567	-0.009308	-0.13718	0.007629	-0.00351	0.001831
8.171	-0.005341	-0.022583	0.060272	0.026398	0.016937	-0.017395	-0.011749	0	0.013123	0.030212	0.15686	0.016785	0.033722	0.079193	-0.1506	-0.024872	-0.007782	-0.056763	0.36926	-0.031586	0.016632	0.10971	-0.067139	0.008698	0.018921	-0.04776	-0.034027	-0.011597	-0.013428	-0.033264	0.001984	0.000916
8.172	0.001678	-0.048065	0.036926	0.015106	0.020142	-0.006409	-0.002289	0.002747	0.031128	0.008545	-0.10773	0.048065	0.027161	0.069122	-0.45349	-0.027313	0.005493	-0.037384	0.15411	-0.033569	-0.006104	0.11673	-0.010223	-0.043488	0.013123	-0.054626	-0.027771	-0.007019	0.10819	-0.045166	-0.000916	-0.010071
8.173	-0.00061	-0.059662	0.007019	0.020752	0.011597	-0.008392	-0.034027	0.003662	0.001831	-0.013733	-0.21805	-0.009613	0.054932	0.10117	-0.28427	-0.019836	0.015717	-0.044098	0.040436	-0.14786	0.032501	0.060883	-0.036011	-0.084686	0.018463	-0.065765	0.001068	-0.006409	0.2446	-0.039063	-0.003052	-0.003052
8.174	0.007019	-0.033112	0.015411	0.011902	0.019226	-0.02655	-0.04837	0.010529	-0.010376	-0.039063	-0.28946	-0.024109	0.07843	0.2095	-0.35324	-0.037994	0.046387	-0.061035	-0.11047	0.035858	0.074615	0.034637	-0.039368	-0.13199	0.005035	-0.065918	-0.00061	-0.005646	0.17899	-0.029755	-0.002289	-0.005798
8.175	0.003967	-0.057831	0.065918	0.026398	0.020294	-0.013733	-0.039825	0.007324	-0.010681	-0.055389	-0.19836	-0.051727	0.026398	0.12512	-0.39887	-0.059052	0.057373	-0.030518	-0.27222	0.18906	0.069885	0.043488	-0.064697	-0.1915	0.006104	-0.064087	-0.014648	-0.00824	0.035095	-0.040436	-0.002289	-0.003815
8.176	0.008392	-0.054932	0.044403	-0.003204	0.016174	-0.009613	0.03067	0.001984	0.010071	-0.033875	-0.19363	0.008698	-0.001221	0.012054	-0.44327	-0.079346	0.025635	-0.12848	-0.36987	0.10895	0.010071	0.086975	-0.021667	-0.19058	0.007477	-0.06485	0.001526	-0.014801	0.021973	0.014496	0.002441	-0.00946
8.177	0.00412	-0.10208	0.033112	-0.013123	0.021667	-0.022583	0.0383	0.005493	0.046234	-0.07019	-0.12802	0.007324	-0.061798	0.050964	-0.22156	0.061188	-0.045624	-0.095978	-0.54794	0.080566	-0.23712	0.15259	-0.10437	-0.023499	0.022736	-0.065308	0.028992	-0.010071	-0.06958	0.051727	-0.002136	-0.000458
8.178	0.007019	-0.075989	0.040283	-0.01709	0.016632	-0.021515	0.099487	-0.007477	0.067291	-0.062866	0.048523	0.009613	-0.10757	0.048523	0.027161	0.13748	-0.059052	-0.068817	-0.39902	0.00824	-0.2243	0.25375	-0.10437	0.045471	0.018616	-0.054932	0.060577	-0.006409	0.21622	-0.008087	-0.002747	-0.003204
8.179	-0.000305	-0.048676	0.041962	-0.001221	0.023346	0.01236	0.078583	0.007019	0.14435	-0.042572	0.042572	0.033569	-0.09552	-0.022888	0.1181	-0.14587	-0.070038	-0.077209	-0.13718	0.037384	-0.047455	0.33157	-0.070953	0.051117	0.016022	-0.052795	0.034332	-0.014191	0.069275	-0.11505	-0.002136	-0.002441
8.18	0.005341	-0.058594	0.01236	-0.005493	0.020905	-0.002594	0.098419	0.00351	0.18082	-0.039673	-0.009918	0.055695	-0.05127	-0.021667	0.12665	-0.012665	-0.051727	-0.091095	0.22858	0.039215	-0.004425	0.37216	-0.046082	0.039215	0.01236	-0.056458	0.047607	-0.016937	-0.032959	-0.088806	-0.004578	-0.006561
8.181	0.010071	-0.045776	0.10574	-0.019531	0.021057	-0.002441	0.09903	0.003815	0.18372	-0.015717	-0.005188	0.10742	-0.003052	0.064087	0.13825	-1.017	-0.032349	-0.041656	0.044403	-0.004272	-0.069275	0.42801	-0.045929	-0.028839	0.019836	-0.05188	0.040283	-0.006409	-0.26871	-0.036163	-0.002441	-0.009613
8.182	0.00412	-0.031586	0.07431	-0.009766	0.015106	0.00885	0.14847	0.00061	0.20462	-0.003052	-0.006866	0.082245	0.08606	0.30548	0.14008	0.28992	-0.008087	-0.011139	-0.12238	-0.050964	-0.16663	0.4657	-0.011139	-0.059204	0.018921	-0.045471	-0.14526	-0.011139	-0.032501	0.003052	-0.002899	-0.005035
8.183	-0.001221	-0.032959	0.032806	0.003357	0.015564	-0.000305	0.15549	0.000305	0.18295	0.039063	0.005188	-0.017242	0.088196	0.31647	0.092926	0.83847	-0.012054	0.011597	-0.53238	-0.03006	-0.039063	0.47852	-0.051727	-0.034943	0.011292	-0.044403	-0.2005	-0.003967	0.32761	-0.039673	-0.000763	-0.012817
8.184	-0.002747	-0.032501	0.031281	0.014954	0.028687	-0.007019	0.091095	0.003357	0.078125	0.029144	-0.019989	-0.038452	0.066223	0.001526	0.069885	-0.20691	-0.002136	0.039368	-0.84427	-0.027466	-0.070953	0.53497	-0.036011	-0.025635	0.011597	-0.045776	-0.09201	-0.010834	0.10986	0.006714	-0.001831	-0.012512
8.185	0.005951	-0.032654	0.06012	0.009155	0.051575	-0.018005	0.04715	0.002441	-0.1297	-0.032806	-0.021057	0.037384	0.036774	-0.18738	0.024109	-0.074463	-0.006104	0.042419	-0.91583	0.016632	-0.03067	0.58182	-0.029907	-0.032959	0.007935	-0.033417	-0.043335	-0.01358	-0.11444	0.005188	-0.000458	-0.019989
8.186	0.010223	-0.021515	0.042267	-0.00412	0.023346	-0.027771	-0.012512	0.00412	-0.26489	-0.035858	0.020142	0.019836	0.012207	-0.20432	-0.010071	0.43869	-0.033569	0.061798	-0.43594	0.001221	0.20676	0.62408	-0.041656	-0.02121	0.002899	-0.02655	-0.010071	-0.005493	-0.087738	-0.020752	0.001678	-0.020142
8.187	0.007019	-0.031433	0.03891	0.016022	0.014648	-0.015411	-0.052185	0.00351	-0.30777	0.018768	0.035248	0.027161	0.000305	0.062103	0.006714	0.1181	-0.003815	0.05127	0.22308	-0.048828	0.063477	0.62271	-0.018311	-0.074768	-0.010986	-0.024567	-0.023346	-0.001526	-0.000458	-0.000153	-0.007935	-0.014038
8.188	0.005493	-0.01709	0.064697	0.009308	0.014648	-0.018158	0.013885	0.006866	-0.23865	0.017548	0.04425	0.015106	0.046692	0.24216	0.028992	-0.031891	0.00412	0.043793	0.62286	-0.047455	0.018616	0.60776	-0.045471	-0.071716	-0.006866	-0.028076	-0.032043	-0.011749	-0.003357	-0.010223	-0.002899	-0.019684
8.189	0.00351	-0.014191	0.10101	-0.009308	0.012054	-0.004425	0.065613	0.002289	-0.12512	-0.012054	0.015717	-0.013885	0.035553	0.2034	0.040894	0.002899	-0.00061	-0.055237	0.56381	-0.090332	0.029449	0.59723	-0.087128	-0.10239	0	-0.029297	-0.048828	-0.006409	-0.06134	-0.059662	-0.001068	-0.013733
8.19	0.005646	-0.048676	0.065613	-0.001373	0.018311	-0.023804	0.076904	0.004272	-0.067291	-0.033264	0.01297	0.005951	0.024414	0.033417	0.041809	0.002594	-0.004425	-0.055695	0.16739	-0.012665	0.006714	0.54627	-0.075378	-0.080872	0.004883	-0.022583	-0.04303	-0.015564	-0.066681	-0.039825	0	-0.012817
8.191	0.006256	-0.034485	0.037842	0.014954	0.014648	-0.012512	0.059052	0.016479	0.018463	-0.065613	0.015411	-0.019684	-0.006561	-0.096741	0.03006	-0.026093	-0.001678	-0.070038	-0.23041	0.000153	0.067444	0.48492	-0.083618	-0.033264	0.024109	-0.023956	-0.03479	-0.009308	-0.03891	-0.003357	-0.003357	-0.005035
8.192	0.010223	-0.008392	0.013428	0.023804	0.015869	-0.017395	-0.014954	0.019226	0.11185	-0.083923	0.019226	-0.011749	-0.062561	-0.12878	0.005188	-0.029449	0.011444	-0.022583	-0.56381	-0.083771	0.079193	0.42816	-0.053864	-0.056915	0.02533	-0.02594	-0.040436	-0.012207	0.3389	-0.007477	-0.001373	-0.015717
8.193	0.011902	-0.006104	-0.010376	0.030212	0.032959	-0.019836	0.060577	0.010071	0.05661	-0.10208	0.016785	-0.009613	-0.062408	-0.20172	-0.00473	-0.026855	0.016632	0.052338	-0.35843	-0.13001	-0.22675	0.37231	-0.029755	-0.087891	0.002441	-0.023346	-0.020447	0.000763	0.12756	-0.023041	0.001526	-0.003967
8.194	0.009003	-0.006561	0.04837	0.000153	0.013275	-0.018463	0.077667	0.006409	0.1149	-0.075989	0.019989	-0.013428	-0.009918	-0.13702	0.015411	-0.011902	0.022125	0.034332	-0.33005	0.079041	-0.34943	0.36102	-0.042725	-0.068207	-0.000458	-0.017395	-0.013733	-0.005951	-0.034943	-0.014191	-0.000153	-0.002136
8.195	0.000305	-0.020752	0.065155	-0.001678	0.021973	-0.010529	0.013428	0.007172	0.085602	-0.046692	0.026398	-0.007019	0.011749	0.098419	0.009918	-0.016022	0.02243	0.070343	-0.034332	0.24048	-0.33188	0.31128	-0.07782	-0.083618	0.014648	-0.012054	-0.023041	-0.00473	-0.024872	-0.030518	-0.000458	-0.007324
